#!OML:ASF G:\JayActor3\Patient Classification 1\Patient 1\Session 5\male.ASF
:FULLY-SPECIFIED
:DEGREES
300
root 34.1567 15.969 -5.28954 472.442 -85.3535 -454.976
lowerback 25.0223 -0.387711 3.93315
upperback 4.70542 0.178552 0.353996
thorax -8.67905 -0.169126 -1.90064
lowerneck 0.12587 -0.18868 2.15311
upperneck -5.21413 -0.193944 1.56544
head -1.6333 -0.18949 0.129131
rclavicle -4.37326e-015 9.54166e-015
rhumerus -31.9088 -8.10989 -86.2084
rradius 25.7497
rwrist 2.17763
rhand -20.686 -7.69435
rfingers 7.12502
rthumb 5.67753 -37.5983
lclavicle -4.37326e-015 9.54166e-015
lhumerus -33.3717 4.88545 83.4531
lradius 28.7813
lwrist 24.5894
lhand -18.8789 11.4223
lfingers 7.12502
lthumb 7.42203 41.2721
rfemur -21.4262 -0.886195 30.6391
rtibia 50.2736
rfoot -20.3042 2.01764
rtoes -4.52127
lfemur -51.2858 2.19587 -20.4948
ltibia 31.3817
lfoot -5.23247 2.06699
ltoes -4.17978
301
root 34.0114 15.9803 -5.2779 473.23 -85.4043 -455.672
lowerback 25.0336 -0.37054 3.90389
upperback 4.67724 0.19365 0.325883
thorax -8.71566 -0.161794 -1.91988
lowerneck 0.16308 -0.21067 2.15766
upperneck -5.16582 -0.223209 1.535
head -1.62445 -0.202562 0.119296
rclavicle -1.03368e-014 -3.77691e-015
rhumerus -31.8848 -7.99999 -86.2662
rradius 25.7899
rwrist 2.20622
rhand -20.636 -7.75177
rfingers 7.12502
rthumb 5.72576 -37.6544
lclavicle -1.03368e-014 -3.77691e-015
lhumerus -33.4284 4.69368 83.5366
lradius 29.0197
lwrist 24.7367
lhand -18.8727 11.2808
lfingers 7.12502
lthumb 7.42806 41.1304
rfemur -21.9665 -1.28451 30.2512
rtibia 51.7163
rfoot -18.4831 2.78174
rtoes -4.04228
lfemur -51.2738 2.40387 -20.7449
ltibia 32.0747
lfoot -4.66119 1.6727
ltoes -2.01742
302
root 33.8664 15.9941 -5.26481 474.03 -85.4574 -456.374
lowerback 25.0091 -0.362991 3.87703
upperback 4.65803 0.195724 0.305853
thorax -8.72456 -0.159961 -1.92731
lowerneck 0.167794 -0.219665 2.17592
upperneck -5.06799 -0.238208 1.4565
head -1.59413 -0.206766 0.0919331
rclavicle 0 1.27222e-014
rhumerus -31.8223 -7.87075 -86.3171
rradius 25.8366
rwrist 2.24855
rhand -20.5441 -7.79966
rfingers 7.12502
rthumb 5.81451 -37.6999
lclavicle 0 1.27222e-014
lhumerus -33.4885 4.51842 83.6314
lradius 29.2426
lwrist 24.934
lhand -18.8821 11.148
lfingers 7.12502
lthumb 7.41892 40.9979
rfemur -22.5909 -1.65971 29.8434
rtibia 53.2503
rfoot -16.5447 3.37093
rtoes -3.26507
lfemur -51.2138 2.5538 -20.9837
ltibia 32.6791
lfoot -4.13289 1.37281
ltoes 0.227822
303
root 33.7226 16.0096 -5.25022 474.869 -85.537 -457.119
lowerback 24.9688 -0.365617 3.83465
upperback 4.65101 0.179184 0.286561
thorax -8.71297 -0.166142 -1.91907
lowerneck 0.136866 -0.216702 2.20278
upperneck -4.94027 -0.240005 1.33763
head -1.54816 -0.203174 0.050402
rclavicle -3.18055e-015 6.55989e-015
rhumerus -31.7276 -7.73602 -86.3583
rradius 25.9055
rwrist 2.2841
rhand -20.4079 -7.85361
rfingers 7.12502
rthumb 5.94603 -37.7502
lclavicle -3.18055e-015 6.55989e-015
lhumerus -33.5439 4.35647 83.7352
lradius 29.444
lwrist 25.1733
lhand -18.895 11.0081
lfingers 7.12502
lthumb 7.40647 40.8584
rfemur -23.2987 -1.99787 29.3945
rtibia 54.8833
rfoot -14.564 3.75387
rtoes -2.40232
lfemur -51.0902 2.61091 -21.2148
ltibia 33.2009
lfoot -3.72577 1.19523
ltoes 2.35193
304
root 33.5805 16.0259 -5.23417 476.02 -85.6584 -458.181
lowerback 24.9278 -0.370823 3.75575
upperback 4.65415 0.148268 0.259232
thorax -8.69071 -0.178139 -1.8942
lowerneck 0.0778795 -0.202059 2.22789
upperneck -4.80816 -0.227792 1.19963
head -1.49602 -0.192213 0.00313499
rclavicle -1.47101e-014 -1.55052e-014
rhumerus -31.6155 -7.61556 -86.3856
rradius 26.0143
rwrist 2.28741
rhand -20.2286 -7.9223
rfingers 7.12502
rthumb 6.11914 -37.8139
lclavicle -1.47101e-014 -1.55052e-014
lhumerus -33.5926 4.20345 83.8439
lradius 29.6208
lwrist 25.4286
lhand -18.899 10.8902
lfingers 7.12502
lthumb 7.40262 40.7407
rfemur -24.1008 -2.27746 28.8834
rtibia 56.6179
rfoot -12.6037 3.93128
rtoes -1.70436
lfemur -50.8969 2.57094 -21.4448
ltibia 33.645
lfoot -3.4978 1.14251
ltoes 4.2279
305
root 33.4406 16.042 -5.2172 477.569 -85.8337 -459.651
lowerback 24.9016 -0.373099 3.63247
upperback 4.6642 0.108219 0.216516
thorax -8.66918 -0.193621 -1.85803
lowerneck 0.0180308 -0.186504 2.25164
upperneck -4.71026 -0.214163 1.05945
head -1.45473 -0.18127 -0.0444397
rclavicle 7.55382e-015 1.03368e-014
rhumerus -31.5102 -7.52224 -86.4035
rradius 26.1622
rwrist 2.25663
rhand -20.0865 -7.99012
rfingers 7.12502
rthumb 6.25626 -37.8777
lclavicle 7.55382e-015 1.03368e-014
lhumerus -33.6291 4.04159 83.9562
lradius 29.7688
lwrist 25.6685
lhand -18.8796 10.7826
lfingers 7.12502
lthumb 7.42135 40.6324
rfemur -24.9971 -2.49337 28.3022
rtibia 58.4439
rfoot -10.6331 3.89196
rtoes -1.0964
lfemur -50.638 2.45547 -21.6974
ltibia 34.0164
lfoot -3.46409 1.17206
ltoes 5.68435
306
root 33.3032 16.0577 -5.20014 479.607 -86.0643 -461.621
lowerback 24.901 -0.369618 3.45721
upperback 4.67779 0.0611314 0.156455
thorax -8.65747 -0.211615 -1.80902
lowerneck -0.0264496 -0.172921 2.26481
upperneck -4.6651 -0.201753 0.939443
head -1.43287 -0.172192 -0.0838917
rclavicle -4.96962e-015 -4.17448e-015
rhumerus -31.4321 -7.47394 -86.4106
rradius 26.379
rwrist 2.15114
rhand -19.9334 -8.12017
rfingers 7.12502
rthumb 6.40411 -38.0034
lclavicle -4.96962e-015 -4.17448e-015
lhumerus -33.6539 3.87097 84.065
lradius 29.8867
lwrist 25.8626
lhand -18.8315 10.696
lfingers 7.12502
lthumb 7.46782 40.5442
rfemur -25.9831 -2.64605 27.655
rtibia 60.3407
rfoot -8.75675 3.63972
rtoes -0.911619
lfemur -50.3205 2.29677 -21.9878
ltibia 34.3188
lfoot -3.61704 1.23357
ltoes 6.73674
